<?xml version="1.0" encoding="iso-8859-1"?>
<!-- Generator: Adobe Illustrator 23.1.0, SVG Export Plug-In . SVG Version: 6.00 Build 0)  -->
<svg version="1.1" id="Layer_1" xmlns="http://www.w3.org/2000/svg" xmlns:xlink="http://www.w3.org/1999/xlink" x="0px" y="0px"
	 viewBox="0 0 2000 2387.574" style="enable-background:new 0 0 2000 2387.574;" xml:space="preserve">
<image style="display:none;overflow:visible;" width="522" height="656" xlink:href="2D920A70.jpg"  transform="matrix(4.2103 0 0 2.3831 -132.9362 195.0103)">
</image>
<path style="fill:#FF4747;" d="M2000,26.385v1761.19H0V189.504c73.99-25.18,151.56-40.57,230.64-40.57
	c433.02,0,706.72,416.68,939.57,416.68S1733.96,26.385,2000,26.385z"/>
<g>
	<path style="fill:#08C97C;" d="M2000,426.214v1361.36H0V416.365c170.37,88.98,305.44,221.75,496.17,243.21
		c326.81,36.77,457.53-441.19,906.89-453.45C1653.81,199.284,1830.79,290.395,2000,426.214z"/>
	<path style="fill:#08C97C;" d="M0,2114.528V753.168h2000v1371.21c-170.37-88.98-305.44-221.75-496.17-243.21
		c-326.81-36.77-457.53,441.19-906.89,453.45C346.19,2341.458,169.21,2250.348,0,2114.528z"/>
</g>
</svg>
